<?xml version="1.0" encoding="utf-8"?>
<!-- Generator: Adobe Illustrator 21.1.0, SVG Export Plug-In . SVG Version: 6.00 Build 0)  -->
<svg version="1.1" id="Layer_1" xmlns="http://www.w3.org/2000/svg" xmlns:xlink="http://www.w3.org/1999/xlink" x="0px" y="0px"
	 viewBox="0 0 100 125" style="enable-background:new 0 0 100 125;" xml:space="preserve">
<title>74 all</title>
<path d="M86.8,18h-8v-4c0-5.5-4.5-10-10-10H15.2c-5.5,0-10,4.5-10,10v69c0,7.2,5.8,13,13,13h65.5c6.1,0,11-4.9,11-11V26
	C94.8,21.6,91.2,18,86.8,18z M18.2,90c-3.9,0-7-3.1-7-7V14c0-2.2,1.8-4,4-4h53.5c2.2,0,4,1.8,4,4v71c0,1.7,0.4,3.5,1.2,5H18.2z
	 M88.8,85c0,2.8-2.2,5-5,5s-5-2.2-5-5V24h8c1.1,0,2,0.9,2,2V85z"/>
<path d="M19.2,49.7h25c1.7,0,3-1.3,3-3V21.3c0-1.7-1.3-3-3-3h-25c-1.7,0-3,1.3-3,3v25.3C16.2,48.3,17.6,49.7,19.2,49.7z M22.2,24.3
	h19v19.3h-19V24.3z"/>
<path d="M65,70.7H20c-1.7,0-3,1.3-3,3s1.3,3,3,3h45c1.7,0,3-1.3,3-3S66.7,70.7,65,70.7z"/>
<path d="M65,57.7H20c-1.7,0-3,1.3-3,3s1.3,3,3,3h45c1.7,0,3-1.3,3-3S66.7,57.7,65,57.7z"/>
<path d="M65,31H53.2c-1.7,0-3,1.3-3,3s1.3,3,3,3H65c1.7,0,3-1.3,3-3S66.7,31,65,31z"/>
<path d="M65,44H53.2c-1.7,0-3,1.3-3,3s1.3,3,3,3H65c1.7,0,3-1.3,3-3S66.7,44,65,44z"/>
<path d="M65,19H53.2c-1.7,0-3,1.3-3,3s1.3,3,3,3H65c1.7,0,3-1.3,3-3S66.7,19,65,19z"/>
</svg>
