<?xml version="1.0" encoding="utf-8"?>
<!-- Generator: Adobe Illustrator 21.1.0, SVG Export Plug-In . SVG Version: 6.00 Build 0)  -->
<svg version="1.1" id="Layer_1" xmlns="http://www.w3.org/2000/svg" xmlns:xlink="http://www.w3.org/1999/xlink" x="0px" y="0px"
	 viewBox="0 0 100 125" style="enable-background:new 0 0 100 125;" xml:space="preserve">
<path d="M79.2,20.6c-0.3-0.4-0.8-0.6-1.3-0.6H22.1c-0.5,0-1,0.2-1.3,0.6s-0.5,0.8-0.5,1.3L25,74.7c0.3,3,2.7,5.3,5.8,5.3h38.5
	c3,0,5.5-2.3,5.8-5.3l4.7-52.8C79.7,21.4,79.5,20.9,79.2,20.6z M26.1,47.8H29v6.6c0,3.3,2.7,6,6,6h11.1c2.8,0,5.2-1.9,5.8-4.5
	l2.1,0.8c0.7,0.2,1.4,0.4,2,0.4c0.9,0,1.8-0.2,2.6-0.6c1.5-0.7,2.6-1.9,3.1-3.4l1.9-5.2h3.1L66,56.8c-0.1,1,0.6,1.8,1.6,1.9h0.1
	c0.9,0,1.7-0.7,1.7-1.6l0.8-9.4h3.6l-1.3,15.1h-45L26.1,47.8z M62.3,41.3l-1.1,3h-9v-1.1c0-3.2-2.5-5.8-5.7-6l0.5-1.4
	c0.2-0.6,0.7-1.2,1.3-1.4c0.6-0.3,1.3-0.3,1.9-0.1L60.7,38c0.6,0.2,1.2,0.7,1.4,1.3C62.5,40,62.5,40.6,62.3,41.3z M52.2,47.8H60
	l-1.4,4c-0.2,0.6-0.7,1.2-1.3,1.4c-0.6,0.3-1.3,0.3-1.9,0.1l-3.1-1.1L52.2,47.8L52.2,47.8z M46.1,40.7c1.4,0,2.5,1.1,2.5,2.5v1.1
	H32.4v-1.1c0-1.4,1.1-2.5,2.5-2.5H46.1z M48.7,47.8v6.6c0,1.4-1.1,2.5-2.5,2.5H35c-1.4,0-2.5-1.1-2.5-2.5v-6.6H48.7z M76,23.5
	l-1.8,20.8h-3.7l1.1-13.1c0.1-1-0.6-1.8-1.6-1.9s-1.8,0.6-1.9,1.6L67,44.3h-2.1l0.6-1.8c0.5-1.5,0.5-3.2-0.2-4.6
	c-0.7-1.5-1.9-2.6-3.4-3.1L51.4,31c-1.5-0.5-3.2-0.5-4.6,0.2c-1.5,0.7-2.6,1.9-3.1,3.4l-0.9,2.5H35c-3.3,0-6,2.7-6,6v1.1h-3.1
	L24,23.5H76z M69.2,76.5H30.8c-1.2,0-2.2-0.9-2.3-2.1l-0.7-8h44.5l-0.7,8C71.4,75.6,70.4,76.5,69.2,76.5z"/>
</svg>
