<?xml version="1.0" encoding="utf-8"?>
<!-- Generator: Adobe Illustrator 21.1.0, SVG Export Plug-In . SVG Version: 6.00 Build 0)  -->
<svg version="1.1"
	 id="Layer_1" xmlns:cc="http://creativecommons.org/ns#" xmlns:dc="http://purl.org/dc/elements/1.1/" xmlns:inkscape="http://www.inkscape.org/namespaces/inkscape" xmlns:rdf="http://www.w3.org/1999/02/22-rdf-syntax-ns#" xmlns:sodipodi="http://sodipodi.sourceforge.net/DTD/sodipodi-0.dtd" xmlns:svg="http://www.w3.org/2000/svg"
	 xmlns="http://www.w3.org/2000/svg" xmlns:xlink="http://www.w3.org/1999/xlink" x="0px" y="0px" viewBox="0 0 100 80.2"
	 style="enable-background:new 0 0 100 80.2;" xml:space="preserve">
<g transform="translate(0,-952.36218)">
	<path d="M52.4,1018.4H64c1.6,0,3-1.4,3-3v-3.3l14.3,3.2c1.7,0.4,3.6-1.1,3.7-2.9v-24c-0.2-2.4-2.1-3.3-3.7-2.9L67,988.6v-3.2
		c0-1.6-1.4-3-3-3h-1.8c3-2.7,4.8-6.7,4.8-11c0-8.3-6.8-15-15-15c-6.1,0-11.4,3.8-13.8,9.1c-2.4-3.1-6.1-5.1-10.2-5.1
		c-7.1,0-13,5.9-13,13c0,3.5,1.4,6.7,3.7,9H18c-1.7,0-3,1.7-3,3v30c0,1.6,1.4,3,3,3h11.8 M52,962.4c5,0,9,4,9,9s-4,9-9,9s-9-4-9-9
		S47,962.4,52,962.4z M28,966.4c3.9,0,7,3.1,7,7s-3.1,7-7,7s-7-3.1-7-7S24.1,966.4,28,966.4z M39.4,979.6c0.7,1,1.5,2,2.4,2.8h-4.5
		C38.2,981.5,38.9,980.6,39.4,979.6z M21,988.4h40v24H21V988.4z M79,992.1v16.5l-12-2.7v-11.2L79,992.1z M37.2,1018.4h7.6H37.2z"/>
</g>
</svg>
